<svg xmlns="http://www.w3.org/2000/svg" width="1000" height="540" viewBox="0 0 1000 540">
<style>text{font-family:system-ui,-apple-system,Segoe UI,sans-serif;font-size:13px}.title{font-size:20px;font-weight:600}.axis{stroke-width:1}.bar{fill:none;stroke-width:1.6}</style>
<text class="title" x="85" y="30">Net Expectancy Comparison</text>
<line class="axis" x1="85" y1="425" x2="950" y2="425"/>
<line class="axis" x1="85" y1="60" x2="85" y2="425"/>
<line x1="80" y1="425.0" x2="85" y2="425.0"/>
<text x="75" y="429.0" text-anchor="end">-0.42</text>
<line x1="80" y1="352.0" x2="85" y2="352.0"/>
<text x="75" y="356.0" text-anchor="end">-0.33</text>
<line x1="80" y1="279.0" x2="85" y2="279.0"/>
<text x="75" y="283.0" text-anchor="end">-0.23</text>
<line x1="80" y1="206.0" x2="85" y2="206.0"/>
<text x="75" y="210.0" text-anchor="end">-0.14</text>
<line x1="80" y1="133.0" x2="85" y2="133.0"/>
<text x="75" y="137.0" text-anchor="end">-0.05</text>
<line x1="80" y1="60.0" x2="85" y2="60.0"/>
<text x="75" y="64.0" text-anchor="end">0.04</text>
<line x1="85" y1="91.5" x2="950" y2="91.5" stroke-dasharray="4 4"/>
<rect class="bar" x="110.7" y="90.4" width="40.4" height="1.1"/>
<rect class="bar" x="163.1" y="91.5" width="40.4" height="35.8" stroke-dasharray="3 2"/>
<text x="157.1" y="450" text-anchor="middle">V3-C</text>
<text x="157.1" y="467" text-anchor="middle">Arguments/2CR</text>
<rect class="bar" x="254.8" y="90.4" width="40.4" height="1.1"/>
<rect class="bar" x="307.3" y="91.5" width="40.4" height="85.1" stroke-dasharray="3 2"/>
<text x="301.2" y="450" text-anchor="middle">V4</text>
<text x="301.2" y="467" text-anchor="middle">Sharp Turn</text>
<rect class="bar" x="399.0" y="91.5" width="40.4" height="82.7"/>
<rect class="bar" x="451.5" y="91.5" width="40.4" height="123.5" stroke-dasharray="3 2"/>
<text x="445.4" y="450" text-anchor="middle">V5</text>
<text x="445.4" y="467" text-anchor="middle">No-Resistance AoO</text>
<rect class="bar" x="543.2" y="91.5" width="40.4" height="65.2"/>
<rect class="bar" x="595.6" y="91.5" width="40.4" height="134.5" stroke-dasharray="3 2"/>
<text x="589.6" y="450" text-anchor="middle">V6</text>
<text x="589.6" y="467" text-anchor="middle">Momentum</text>
<rect class="bar" x="687.3" y="91.5" width="40.4" height="220.6"/>
<rect class="bar" x="739.8" y="91.5" width="40.4" height="303.0" stroke-dasharray="3 2"/>
<text x="733.8" y="450" text-anchor="middle">V7</text>
<text x="733.8" y="467" text-anchor="middle">Candle Science</text>
<rect class="bar" x="831.5" y="91.5" width="40.4" height="187.5"/>
<rect class="bar" x="884.0" y="91.5" width="40.4" height="248.4" stroke-dasharray="3 2"/>
<text x="877.9" y="450" text-anchor="middle">V8</text>
<text x="877.9" y="467" text-anchor="middle">FVG Follow-Through</text>
<text x="20" y="242.5" transform="rotate(-90 20 242.5)" text-anchor="middle">R per resolved trade</text>
<rect class="bar" x="810" y="70" width="18" height="12"/><text x="835" y="81">Base</text>
<rect class="bar" x="810" y="94" width="18" height="12" stroke-dasharray="3 2"/><text x="835" y="105">Stress</text>
</svg>